<?xml version="1.0" standalone="no"?>
<!DOCTYPE svg PUBLIC "-//W3C//DTD SVG 20010904//EN"
 "http://www.w3.org/TR/2001/REC-SVG-20010904/DTD/svg10.dtd">
<svg version="1.0" xmlns="http://www.w3.org/2000/svg"
 width="350.000000pt" height="350.000000pt" viewBox="0 0 350.000000 350.000000"
 preserveAspectRatio="xMidYMid meet">

<g transform="translate(0.000000,350.000000) scale(0.100000,-0.100000)"
fill="#000000" stroke="none">
<path d="M0 1750 l0 -1750 1750 0 1750 0 0 1750 0 1750 -1750 0 -1750 0 0
-1750z m1918 864 l162 -37 0 -279 c0 -363 13 -337 -227 -471 l-102 -57 -122
67 c-142 78 -192 123 -208 187 -7 27 -11 144 -11 298 l0 253 158 36 c86 20
164 37 172 38 8 1 88 -15 178 -35z m-1368 -478 c0 -2 -7 -7 -16 -10 -8 -3 -12
-2 -9 4 6 10 25 14 25 6z m2459 -16 c55 -32 81 -79 81 -147 0 -71 -20 -107
-90 -162 -109 -86 -226 -91 -446 -20 -133 43 -235 55 -324 37 l-35 -7 35 17
c66 30 192 21 384 -28 139 -35 180 -42 229 -37 75 7 159 49 200 99 69 86 32
218 -69 247 -94 26 -178 -83 -108 -138 47 -37 53 -30 66 82 3 23 19 22 47 -4
19 -18 22 -28 17 -60 -4 -25 -2 -39 7 -43 8 -3 5 -11 -12 -25 -61 -54 -161 -5
-161 79 0 54 21 93 62 113 44 22 73 21 117 -3z m-2430 -132 c1 -36 32 -38 66
-3 19 18 25 20 25 9 0 -29 -65 -84 -100 -84 -57 0 -68 13 -65 76 1 47 6 61 25
76 l24 20 12 -34 c7 -18 13 -45 13 -60z m-160 16 c-29 -104 92 -221 241 -232
52 -3 98 4 235 36 163 39 234 49 300 42 17 -1 -6 -6 -50 -10 -46 -4 -127 -23
-190 -43 -199 -64 -290 -70 -391 -23 -63 29 -138 105 -153 156 -10 34 -8 78 6
103 10 17 11 4 2 -29z m784 -56 c22 -11 58 -33 80 -49 50 -36 87 -39 87 -6 1
21 1 21 25 -6 26 -29 45 -84 45 -129 0 -26 -2 -25 -46 23 -28 29 -73 62 -113
82 -65 32 -68 32 -208 32 -127 0 -144 2 -169 21 -40 30 -43 46 -5 31 25 -9 45
-7 113 10 91 24 132 22 191 -9z m1276 10 c75 -17 100 -19 123 -10 37 14 34 -3
-6 -32 -25 -19 -42 -21 -169 -21 -140 0 -143 0 -208 -32 -40 -20 -85 -53 -113
-82 l-46 -50 0 37 c0 42 28 110 53 131 15 12 17 11 17 -8 0 -33 35 -26 107 20
52 34 119 66 143 69 3 0 47 -10 99 -22z m-1734 -104 c20 -3 71 1 117 10 53 10
96 13 118 8 l35 -8 -50 -6 c-28 -4 -86 -20 -128 -37 -87 -35 -124 -38 -167
-16 -42 22 -55 50 -40 86 l12 29 34 -30 c18 -16 49 -32 69 -36z m2125 -14
c-14 -26 -62 -50 -99 -50 -16 0 -64 14 -106 31 -42 16 -99 33 -128 36 l-52 7
35 8 c22 5 67 1 122 -9 101 -19 148 -11 189 33 l24 26 13 -32 c9 -22 9 -36 2
-50z m-1562 -48 c51 -27 55 -37 7 -16 -50 21 -148 18 -193 -5 -20 -11 -59 -42
-86 -70 -27 -27 -53 -48 -58 -45 -4 3 -8 21 -8 40 0 52 -36 46 -105 -16 -61
-55 -67 -58 -63 -32 3 15 -6 17 -97 14 -75 -3 -105 0 -119 11 -26 19 -14 51
17 44 12 -4 51 -9 87 -13 59 -6 74 -3 165 32 188 71 242 84 330 81 58 -3 92
-10 123 -25z m1192 -5 c41 -14 116 -40 165 -58 87 -31 92 -31 170 -21 86 11
108 5 88 -26 -9 -15 -26 -17 -116 -15 -102 2 -106 1 -109 -20 -3 -19 -9 -16
-61 31 -71 64 -107 70 -107 18 0 -19 -4 -37 -8 -40 -5 -3 -31 18 -58 45 -27
28 -66 59 -86 70 -45 23 -128 25 -189 4 l-44 -15 25 20 c14 10 41 24 60 29 59
17 187 6 270 -22z m-360 0 c0 -2 -10 -12 -22 -23 l-23 -19 19 23 c18 21 26 27
26 19z m735 -226 c121 -4 -385 -7 -1125 -7 -740 0 -1257 3 -1150 6 284 8 2017
9 2275 1z m-2464 -111 c24 -14 25 -56 0 -71 -18 -12 -18 -12 0 -30 11 -11 19
-30 19 -43 0 -13 6 -27 13 -29 6 -3 0 -6 -15 -6 -30 -1 -38 8 -47 53 -4 18
-14 32 -24 34 -13 3 -17 -4 -17 -30 0 -19 5 -39 12 -46 9 -9 2 -12 -32 -11
-25 0 -39 3 -32 6 8 3 12 31 12 88 0 57 -4 85 -12 88 -7 3 13 6 45 6 32 1 67
-4 78 -9z m180 -22 c-4 -31 -5 -32 -11 -8 -4 18 -14 26 -33 28 -25 3 -27 1
-27 -37 0 -43 12 -53 29 -23 8 13 10 9 10 -23 0 -32 -2 -36 -10 -22 -17 29
-29 19 -29 -23 0 -36 3 -40 25 -40 16 0 29 9 39 28 l15 27 1 -32 0 -33 -67 0
-68 0 0 95 0 95 66 0 66 0 -6 -32z m149 -3 l-1 -30 -15 28 c-11 20 -22 27 -37
25 -37 -5 -31 -34 13 -64 48 -35 60 -67 34 -95 -14 -15 -28 -19 -66 -17 -48 3
-48 3 -47 38 l1 35 14 -32 c10 -24 21 -33 38 -33 43 0 39 28 -9 75 -50 49 -53
60 -28 87 12 14 28 18 60 16 41 -3 43 -5 43 -33z m180 3 l-1 -33 -15 28 c-8
15 -21 27 -29 27 -24 0 -21 -155 3 -169 13 -8 6 -10 -33 -10 -27 0 -44 3 -37
6 8 3 12 31 12 89 0 68 -3 84 -15 84 -8 0 -17 -11 -21 -25 -9 -35 -24 -31 -24
5 l0 30 80 0 80 0 0 -32z m162 12 c32 -25 42 -71 24 -115 -24 -57 -90 -73
-139 -35 -31 25 -41 62 -27 106 21 62 91 84 142 44z m185 -6 c12 -19 11 -24
-6 -45 -18 -23 -18 -23 3 -34 27 -14 32 -42 10 -66 -14 -15 -30 -19 -83 -18
-36 0 -60 3 -53 6 8 3 12 31 12 88 0 57 -4 85 -12 89 -7 3 16 4 51 3 52 -2 66
-6 78 -23z m157 -67 c23 -65 35 -87 48 -87 16 0 18 10 18 84 0 58 -4 86 -12
89 -7 3 13 6 45 6 32 1 67 -4 78 -9 25 -14 24 -55 -1 -73 -17 -12 -18 -16 -6
-20 8 -3 17 -21 21 -39 4 -18 13 -37 19 -41 6 -4 -2 -6 -18 -5 -31 3 -41 16
-51 61 -3 15 -12 27 -20 27 -19 0 -21 -76 -2 -83 6 -3 -25 -6 -71 -6 -56 -1
-81 2 -77 10 4 5 4 21 1 35 -5 18 -13 24 -35 24 -23 0 -30 -6 -35 -27 -5 -17
-3 -29 6 -34 9 -6 3 -9 -16 -9 -23 0 -26 3 -17 14 6 7 20 37 30 67 33 96 41
111 53 107 6 -2 25 -43 42 -91z m410 77 c38 -38 5 -104 -51 -104 -18 0 -23 -6
-23 -25 0 -13 8 -29 18 -34 13 -8 6 -10 -33 -10 -27 0 -44 3 -37 6 8 3 12 31
12 88 0 57 -4 85 -12 88 -7 3 15 6 49 6 43 1 66 -4 77 -15z m98 4 c-14 -14
-16 -106 -2 -142 11 -31 45 -35 60 -7 15 28 13 148 -2 154 -7 3 1 5 17 5 17 0
24 -2 18 -5 -9 -3 -13 -27 -13 -72 0 -83 -16 -111 -65 -111 -49 0 -65 28 -65
111 0 45 -4 69 -12 72 -7 3 7 6 32 6 34 1 41 -2 32 -11z m238 -8 c11 -11 20
-27 20 -35 0 -23 -46 -65 -70 -65 -15 0 -20 -6 -20 -29 0 -20 6 -31 18 -34 9
-3 -3 -5 -28 -6 l-45 -1 0 95 0 95 53 0 c39 0 57 -5 72 -20z m103 13 c-14 -5
-19 -127 -7 -157 9 -23 40 -20 58 6 13 18 16 19 16 6 0 -34 -69 -50 -104 -25
-13 10 -19 34 -25 95 l-7 82 41 -1 c22 0 34 -3 28 -6z m81 -8 c-4 -8 -8 -15
-11 -15 -2 0 -11 7 -19 15 -14 13 -13 15 10 15 18 0 24 -4 20 -15z m175 -20
c0 -29 -1 -29 -11 -7 -15 30 -55 40 -76 18 -11 -11 -16 -33 -16 -70 0 -58 13
-82 47 -89 16 -3 13 -5 -9 -6 -64 -2 -105 59 -84 125 16 48 45 65 102 62 46
-3 48 -4 47 -33z m93 23 c-7 -7 -12 -27 -12 -45 0 -31 2 -33 35 -33 34 0 35 1
35 39 0 22 -5 42 -12 44 -7 3 7 5 32 5 25 0 39 -2 33 -5 -9 -3 -13 -31 -13
-88 0 -57 4 -85 13 -88 6 -3 -8 -5 -33 -5 -25 0 -39 2 -32 5 7 2 12 22 12 44
0 38 -1 39 -35 39 -33 0 -35 -2 -35 -33 0 -18 5 -38 12 -45 9 -9 2 -12 -32
-11 -25 0 -39 3 -32 6 8 3 12 31 12 88 0 57 -4 85 -12 88 -7 3 7 6 32 6 34 1
41 -2 32 -11z m200 0 c-16 -16 -16 -150 0 -166 9 -9 2 -12 -32 -11 -25 0 -39
3 -32 6 8 3 12 31 12 88 0 57 -4 85 -12 88 -7 3 7 6 32 6 34 1 41 -2 32 -11z
m108 -35 c11 -27 24 -56 30 -65 10 -18 -7 -85 -19 -73 -3 4 -18 37 -33 73
l-27 67 0 -67 c-1 -44 3 -68 12 -71 6 -3 1 -6 -13 -6 -25 -1 -25 -1 -25 94 l0
95 28 0 c24 0 31 -7 47 -47z m133 40 c-9 -3 -13 -31 -13 -90 0 -73 2 -84 17
-81 9 2 23 22 31 48 9 25 17 39 20 33 2 -7 13 -13 24 -13 15 0 18 4 12 23 -9
31 -14 34 -25 17 -9 -12 -10 -11 -5 3 3 11 9 30 12 43 3 13 12 24 20 24 8 0
14 -2 14 -4 0 -2 15 -44 34 -95 l34 -91 -35 0 c-19 0 -32 4 -28 10 3 5 3 21
-1 35 -5 19 -12 25 -35 25 -23 0 -30 -6 -35 -26 -4 -17 -2 -29 7 -35 9 -5 -14
-8 -61 -8 -41 0 -69 3 -62 6 8 3 12 26 12 66 0 47 -3 58 -11 47 -9 -12 -10
-12 -5 3 3 11 9 30 12 43 5 20 12 24 43 23 20 0 30 -3 24 -6z m-534 -150 c0
-21 -3 -32 -6 -25 -2 6 -8 10 -13 7 -5 -3 -3 8 3 25 6 16 13 30 14 30 2 0 3
-17 2 -37z m276 -172 c99 -4 -396 -7 -1100 -7 -704 0 -1188 3 -1075 6 301 8
1965 9 2175 1z m-815 -81 c0 -5 -4 -10 -10 -10 -5 0 -10 5 -10 10 0 6 5 10 10
10 6 0 10 -4 10 -10z m150 0 c0 -5 -4 -10 -10 -10 -5 0 -10 5 -10 10 0 6 5 10
10 10 6 0 10 -4 10 -10z m137 -26 c-6 -20 -13 -31 -15 -25 -6 17 7 61 17 61 5
0 4 -16 -2 -36z m-977 -41 c0 -42 -19 -63 -21 -23 -1 27 -1 67 0 83 3 30 21
-21 21 -60z m121 11 c-6 -20 -8 -41 -5 -46 3 -4 -2 -8 -10 -8 -21 0 -20 13 11
100 11 31 14 -9 4 -46z m65 -9 c-9 -45 1 -45 20 1 18 44 25 41 18 -8 -5 -31
-10 -35 -36 -36 -28 -1 -30 1 -24 26 4 15 7 33 8 40 1 6 6 12 11 12 5 0 6 -15
3 -35z m184 24 c0 -6 -7 -9 -15 -5 -17 6 -19 -2 -6 -23 5 -8 7 -20 4 -28 -6
-15 -43 -18 -43 -3 0 5 7 7 15 4 18 -7 19 0 5 27 -6 11 -8 24 -5 29 8 14 45
13 45 -1z m80 2 c0 -5 -7 -14 -15 -21 -13 -11 -14 -10 -9 6 5 13 4 16 -3 9 -6
-5 -14 -21 -18 -34 -6 -21 -5 -23 14 -18 12 3 19 1 15 -4 -8 -13 -42 -11 -47
4 -5 14 11 48 27 59 15 10 36 10 36 -1z m60 0 c0 -18 -22 -71 -30 -71 -5 0 -5
14 0 31 5 18 7 36 4 40 -3 5 2 9 10 9 9 0 16 -4 16 -9z m30 -1 c0 -5 -4 -10
-10 -10 -5 0 -10 5 -10 10 0 6 5 10 10 10 6 0 10 -4 10 -10z m47 -20 c-13 -35
-4 -48 20 -29 16 13 17 12 4 -3 -7 -10 -22 -18 -32 -18 -15 0 -18 7 -16 40 1
30 6 40 19 40 14 0 15 -4 5 -30z m43 20 c0 -5 -4 -10 -10 -10 -5 0 -10 5 -10
10 0 6 5 10 10 10 6 0 10 -4 10 -10z m50 1 c0 -27 -14 -71 -22 -71 -6 0 -7 11
-3 28 4 15 8 33 8 40 0 13 17 17 17 3z m96 -3 c5 -8 2 -9 -11 -4 -20 7 -35 -8
-35 -38 0 -12 5 -16 16 -12 8 3 12 2 9 -4 -12 -20 -45 -11 -45 12 0 40 49 75
66 46z m48 -10 c-4 -13 -8 -31 -8 -40 0 -10 -6 -18 -14 -18 -9 0 -11 7 -6 23
4 12 8 30 8 40 0 9 6 17 14 17 9 0 11 -7 6 -22z m94 -4 c3 -24 -21 -54 -44
-54 -23 0 -28 28 -9 56 19 29 49 28 53 -2z m-988 -44 c0 -5 -5 -10 -11 -10 -5
0 -7 5 -4 10 3 6 8 10 11 10 2 0 4 -4 4 -10z m1030 0 c0 -5 -4 -10 -10 -10 -5
0 -10 5 -10 10 0 6 5 10 10 10 6 0 10 -4 10 -10z"/>
<path d="M1605 2576 l-140 -33 0 -264 c0 -254 1 -265 22 -294 12 -18 70 -58
142 -98 l121 -68 120 67 c90 51 127 77 147 107 l28 40 3 253 4 253 -24 6 c-78
18 -246 56 -263 59 -11 2 -83 -11 -160 -28z m232 -156 c18 -10 41 -37 51 -58
19 -39 19 -40 -1 -78 -11 -22 -27 -44 -36 -51 -14 -11 -14 -13 3 -26 11 -8 22
-34 27 -68 8 -51 31 -85 50 -73 5 3 9 -2 9 -10 0 -13 -13 -16 -65 -16 -61 0
-66 2 -75 26 -6 14 -10 43 -10 65 0 46 -27 79 -65 79 -24 0 -25 -2 -25 -64 0
-60 16 -97 33 -79 4 3 7 -1 7 -11 0 -15 -11 -16 -87 -14 -63 2 -88 7 -91 17
-3 9 0 11 7 7 7 -4 18 -2 26 4 18 15 21 131 4 161 -7 15 -7 24 1 34 6 8 10 40
8 77 -3 57 -5 63 -25 66 -25 4 -31 18 -10 25 6 2 62 4 122 5 93 1 116 -2 142
-18z"/>
<path d="M1718 2399 c-14 -8 -18 -24 -18 -72 0 -67 10 -87 46 -87 30 0 43 19
49 71 9 73 -29 117 -77 88z"/>
<path d="M1815 2325 c0 -43 3 -61 10 -54 12 12 12 96 -1 109 -5 5 -9 -17 -9
-55z"/>
<path d="M1628 2303 c-1 -32 -1 -89 2 -128 7 -101 20 -56 20 70 0 111 -16 153
-22 58z"/>
<path d="M1818 2133 c2 -26 8 -52 13 -57 14 -15 11 68 -4 87 -10 15 -12 10 -9
-30z"/>
<path d="M347 1443 c-4 -3 -7 -21 -7 -40 0 -26 4 -33 19 -33 22 0 35 30 26 60
-6 20 -25 26 -38 13z"/>
<path d="M992 1425 c-27 -58 -6 -145 33 -145 27 0 45 36 45 88 0 71 -54 110
-78 57z"/>
<path d="M1197 1444 c-4 -4 -7 -23 -7 -41 0 -27 4 -34 18 -31 12 2 17 13 17
37 0 33 -13 49 -28 35z"/>
<path d="M1192 1323 c2 -30 7 -38 23 -38 16 0 20 7 20 35 0 29 -4 36 -23 38
-21 3 -23 0 -20 -35z"/>
<path d="M1530 1410 c0 -44 21 -55 39 -22 14 26 2 62 -20 62 -15 0 -19 -7 -19
-40z"/>
<path d="M1350 1391 c0 -5 -3 -16 -6 -25 -4 -12 0 -16 16 -16 16 0 20 4 16 16
-3 9 -6 20 -6 25 0 5 -4 9 -10 9 -5 0 -10 -4 -10 -9z"/>
<path d="M1767 1443 c-4 -3 -7 -26 -7 -50 0 -49 23 -60 41 -19 20 43 -7 96
-34 69z"/>
<path d="M2100 1400 c0 -44 3 -51 18 -48 13 3 17 13 17 48 0 35 -4 45 -17 48
-15 3 -18 -4 -18 -48z"/>
<path d="M2174 985 c-7 -29 -1 -41 15 -30 14 8 14 55 1 55 -5 0 -12 -11 -16
-25z"/>
</g>
</svg>
